<svg viewBox="0 0 200 200" xmlns="http://www.w3.org/2000/svg">
  <path fill="#8A3FFC" d="M37.4,-64.4C46.5,-59.5,50.6,-45.5,56.3,-33.3C62.1,-21,69.5,-10.5,68.6,-0.5C67.7,9.5,58.5,19,53.4,32.3C48.3,45.7,47.3,62.9,39.1,70C30.8,77.1,15.4,74,3.1,68.6C-9.2,63.2,-18.4,55.5,-28.2,49.4C-38.1,43.2,-48.6,38.6,-57.8,30.7C-67.1,22.7,-75.2,11.4,-75.8,-0.4C-76.4,-12.1,-69.6,-24.2,-58.9,-29.6C-48.2,-35.1,-33.5,-33.9,-23.1,-38.1C-12.6,-42.2,-6.3,-51.7,3.9,-58.4C14.1,-65.2,28.3,-69.3,37.4,-64.4Z" transform="translate(100 100)" />
</svg>
