<svg viewBox="0 0 200 200" xmlns="http://www.w3.org/2000/svg">
  <path fill="#8A3FFC" d="M25.5,-37.5C38.2,-36.8,57.3,-40.4,67,-34.9C76.7,-29.4,77,-14.7,72.5,-2.6C68.1,9.5,58.9,19.1,49.2,24.6C39.5,30.2,29.3,31.7,21,39.1C12.8,46.6,6.4,59.9,-3.2,65.4C-12.7,70.9,-25.4,68.4,-35.4,62C-45.4,55.5,-52.7,45.1,-58.2,34.1C-63.7,23.1,-67.5,11.5,-70.4,-1.6C-73.2,-14.8,-75,-29.6,-69.9,-41.4C-64.9,-53.2,-52.9,-62.2,-40.1,-62.9C-27.4,-63.6,-13.7,-56.2,-3.7,-49.8C6.4,-43.5,12.7,-38.3,25.5,-37.5Z" transform="translate(100 100)" />
</svg>
