<svg viewBox="0 0 200 200" xmlns="http://www.w3.org/2000/svg">
  <path fill="#8A3FFC" d="M46.6,-71.8C60.5,-72.7,72,-60.4,72.4,-46.3C72.8,-32.1,62.1,-16.1,55.2,-4C48.3,8.1,45.1,16.1,43.9,28.9C42.7,41.7,43.4,59.1,36.5,62.6C29.5,66.1,14.7,55.6,-0.5,56.5C-15.8,57.5,-31.6,69.8,-40.5,67.4C-49.4,65,-51.4,47.9,-59.4,34.2C-67.5,20.6,-81.6,10.3,-82.2,-0.4C-82.9,-11,-70.1,-22.1,-61,-33.8C-51.8,-45.6,-46.3,-58.1,-36.7,-59.7C-27.2,-61.3,-13.6,-52.1,1.4,-54.5C16.3,-56.9,32.7,-70.9,46.6,-71.8Z" transform="translate(100 100)" />
</svg>
