<svg viewBox="0 0 200 200" xmlns="http://www.w3.org/2000/svg">
  <path fill="#8A3FFC" d="M38.8,-68.1C47,-62.3,48.3,-45.5,57.2,-32.3C66.1,-19.1,82.7,-9.5,80.6,-1.2C78.4,7.1,57.6,14.2,48.8,27.6C40,41,43.2,60.7,37.1,72.2C30.9,83.7,15.5,86.9,5.2,77.9C-5,68.8,-10,47.4,-16.8,36.3C-23.6,25.2,-32.3,24.4,-38.3,20.1C-44.3,15.8,-47.7,7.9,-55,-4.3C-62.4,-16.4,-73.8,-32.8,-69,-39.2C-64.2,-45.6,-43.2,-42,-29,-44.3C-14.8,-46.6,-7.4,-54.7,3.9,-61.5C15.2,-68.4,30.5,-73.8,38.8,-68.1Z" transform="translate(100 100)" />
</svg>
