<svg viewBox="0 0 200 200" xmlns="http://www.w3.org/2000/svg">
  <path fill="#8A3FFC" d="M37.6,-66.1C46.8,-59.9,50.7,-45.8,58,-33.4C65.3,-21.1,75.8,-10.5,77.1,0.8C78.4,12.1,70.6,24.1,60.6,31.9C50.7,39.6,38.8,43.1,28.4,42.9C17.9,42.6,9,38.7,-3.1,44.1C-15.2,49.6,-30.4,64.3,-37.6,62.7C-44.8,61,-44.1,43,-52,29.8C-59.9,16.7,-76.6,8.3,-78.9,-1.4C-81.3,-11,-69.3,-22.1,-60.2,-33.2C-51.1,-44.4,-44.9,-55.6,-35.3,-61.5C-25.7,-67.4,-12.9,-67.9,0.7,-69.1C14.3,-70.3,28.5,-72.2,37.6,-66.1Z" transform="translate(100 100)" />
</svg>
